# xmcd CD database file
#
# Track frame offsets:
#	150
#	24762
#	65392
#	98557
#	119175
#	152922
#	190438
#	214219
#
# Disc length: 3327 seconds
#
# Revision: 0
# Processed by: cddbd v1.5.2PL0 Copyright (c) Steve Scherf et al.
# Submitted via: CDex 1.70beta2
#
DISCID=6d0cfd08
DTITLE=MIGUEL SALVADOR PROJECT - MIGUEL SALVADOR PROJECT
DYEAR=2009
DGENRE=Jazz
TTITLE0=LABERINTO
TTITLE1=PUNTO DE ENCUENTRO
TTITLE2=MIS DOS TESOROS
TTITLE3=AZAGRA 21
TTITLE4=SAGITARIO
TTITLE5=ZODIAK
TTITLE6=FLOR DE NOVIEMBRE
TTITLE7=TRES
EXTD=YEAR: 2009
EXTT0=
EXTT1=
EXTT2=
EXTT3=
EXTT4=
EXTT5=
EXTT6=
EXTT7=
PLAYORDER=
